<?xml version="1.0" encoding="UTF-8"?>
<!-- Generator: Adobe Illustrator 21.1.0, SVG Export Plug-In . SVG Version: 6.00 Build 0)  -->
<svg version="1.1" id="Layer_1" xmlns="http://www.w3.org/2000/svg" xmlns:xlink="http://www.w3.org/1999/xlink" x="0px" y="0px" viewBox="0 0 54 54" style="enable-background:new 0 0 54 54;" xml:space="preserve">
<style type="text/css">
	.st0{fill:none;}
</style>
<g>
	<rect x="-0.2" y="0.1" class="st0" width="53.8" height="53.4"/>
	<path d="M48.1,12.9v26.8c0,2.2-0.8,4.1-2.4,5.7c-1.6,1.6-3.5,2.4-5.7,2.4H13.3c-2.2,0-4.1-0.8-5.7-2.4c-1.6-1.6-2.4-3.5-2.4-5.7   V12.9c0-2.2,0.8-4.1,2.4-5.7c1.6-1.6,3.5-2.4,5.7-2.4H40c2.2,0,4.1,0.8,5.7,2.4C47.3,8.8,48.1,10.7,48.1,12.9z M24.3,22.6   c0,0-1.2-2.1-3.5-6.2c-0.4-0.6-0.9-0.9-1.5-0.9h-5.1c-0.3,0-0.6,0.1-0.7,0.3c-0.1,0.2-0.1,0.5,0,0.8l3.5,6v0l-5.5,9.7   c-0.2,0.3-0.2,0.5,0,0.8c0.1,0.2,0.4,0.4,0.7,0.4h5.2c0.6,0,1-0.3,1.4-1L24.3,22.6z M41.7,8.7c-0.1-0.2-0.4-0.3-0.7-0.3h-5.2   c-0.6,0-1,0.3-1.4,1L23,29.7c0,0,2.5,4.5,7.3,13.4c0.4,0.7,0.9,1,1.5,1h5.1c0.3,0,0.6-0.1,0.7-0.3c0.1-0.2,0.1-0.5,0-0.8l-7.3-13.3   v0L41.7,9.5C41.9,9.2,41.9,9,41.7,8.7z"/>
</g>
</svg>