<?xml version="1.0" encoding="UTF-8" standalone="no"?>
<!-- Generator: Adobe Illustrator 21.1.0, SVG Export Plug-In . SVG Version: 6.00 Build 0)  -->

<svg
   version="1.1"
   id="Layer_1"
   x="0px"
   y="0px"
   viewBox="0 0 54 54"
   style="enable-background:new 0 0 54 54;"
   xml:space="preserve"
   sodipodi:docname="xing_icon2.svg"
   inkscape:version="1.3.2 (091e20e, 2023-11-25, custom)"
   xmlns:inkscape="http://www.inkscape.org/namespaces/inkscape"
   xmlns:sodipodi="http://sodipodi.sourceforge.net/DTD/sodipodi-0.dtd"
   xmlns="http://www.w3.org/2000/svg"
   xmlns:svg="http://www.w3.org/2000/svg"><defs
   id="defs1" /><sodipodi:namedview
   id="namedview1"
   pagecolor="#ffffff"
   bordercolor="#000000"
   borderopacity="0.25"
   inkscape:showpageshadow="2"
   inkscape:pageopacity="0.0"
   inkscape:pagecheckerboard="0"
   inkscape:deskcolor="#d1d1d1"
   inkscape:zoom="8"
   inkscape:cx="12.25"
   inkscape:cy="17.8125"
   inkscape:window-width="1920"
   inkscape:window-height="1009"
   inkscape:window-x="1912"
   inkscape:window-y="-8"
   inkscape:window-maximized="1"
   inkscape:current-layer="Layer_1" />
<style
   type="text/css"
   id="style1">
	.st0{fill:none;}
</style>
<g
   id="g1"
   transform="matrix(1.2574975,0,0,1.2574975,-6.5400652,-6.0309074)">
	<rect
   x="-0.2"
   y="0.1"
   class="st0"
   width="53.799999"
   height="53.400002"
   id="rect1" />
	<path
   d="m 48.1,12.9 v 26.8 c 0,2.2 -0.8,4.1 -2.4,5.7 -1.6,1.6 -3.5,2.4 -5.7,2.4 H 13.3 C 11.1,47.8 9.2,47 7.6,45.4 6,43.8 5.2,41.9 5.2,39.7 V 12.9 C 5.2,10.7 6,8.8 7.6,7.2 9.2,5.6 11.1,4.8 13.3,4.8 H 40 c 2.2,0 4.1,0.8 5.7,2.4 1.6,1.6 2.4,3.5 2.4,5.7 z m -23.8,9.7 c 0,0 -1.2,-2.1 -3.5,-6.2 -0.4,-0.6 -0.9,-0.9 -1.5,-0.9 h -5.1 c -0.3,0 -0.6,0.1 -0.7,0.3 -0.1,0.2 -0.1,0.5 0,0.8 l 3.5,6 v 0 l -5.5,9.7 c -0.2,0.3 -0.2,0.5 0,0.8 0.1,0.2 0.4,0.4 0.7,0.4 h 5.2 c 0.6,0 1,-0.3 1.4,-1 z M 41.7,8.7 C 41.6,8.5 41.3,8.4 41,8.4 h -5.2 c -0.6,0 -1,0.3 -1.4,1 L 23,29.7 c 0,0 2.5,4.5 7.3,13.4 0.4,0.7 0.9,1 1.5,1 h 5.1 c 0.3,0 0.6,-0.1 0.7,-0.3 0.1,-0.2 0.1,-0.5 0,-0.8 L 30.3,29.7 v 0 L 41.7,9.5 c 0.2,-0.3 0.2,-0.5 0,-0.8 z"
   id="path1" />
</g>
</svg>
